<svg width="47" height="47" viewBox="0 0 47 47" fill="none" xmlns="http://www.w3.org/2000/svg">
<path d="M46.8351 11.8359C46.8351 8.77706 45.62 5.84351 43.4571 3.68059C41.2942 1.51767 38.3606 0.302551 35.3018 0.302551H12.2351C9.17626 0.302551 6.24271 1.51767 4.07979 3.68059C1.91687 5.84351 0.701752 8.77706 0.701752 11.8359L0.701752 34.9026C0.701752 37.9614 1.91687 40.895 4.07979 43.0579C6.24271 45.2208 9.17626 46.4359 12.2351 46.4359H35.3018C38.3606 46.4359 41.2942 45.2208 43.4571 43.0579C45.62 40.895 46.8351 37.9614 46.8351 34.9026V11.8359ZM36.0103 13.1935C36.2653 13.3943 36.4782 13.6435 36.6367 13.9268C36.7952 14.2101 36.8961 14.5219 36.9338 14.8443C36.9714 15.1667 36.9451 15.4934 36.8561 15.8055C36.7672 16.1177 36.6175 16.4093 36.4156 16.6634L23.4587 33.0342C23.1443 33.5145 22.7329 33.9238 22.2509 34.2357C21.769 34.5476 21.2271 34.7552 20.6601 34.8452C20.0931 34.9352 19.5136 34.9056 18.9587 34.7583C18.4038 34.611 17.8859 34.3492 17.4383 33.9898L11.5497 29.4457C11.0306 29.0454 10.6917 28.4553 10.6077 27.8052C10.5236 27.1551 10.7013 26.4982 11.1015 25.9791C11.5018 25.4599 12.0919 25.1211 12.742 25.037C13.3921 24.953 14.049 25.1306 14.5681 25.5309L19.2144 29.1194C19.3873 29.2504 19.6047 29.3083 19.8198 29.2806C20.0349 29.2528 20.2305 29.1417 20.3645 28.9711L32.5568 13.5923C32.963 13.083 33.5542 12.7551 34.2013 12.6804C34.8484 12.6057 35.4988 12.7902 36.0103 13.1935Z" fill="#3D82EB"/>
</svg>
